<svg xmlns="http://www.w3.org/2000/svg" width="37" height="33" viewBox="0 0 37 33">
  <defs>
    <style>
      .cls-1 {
        fill: #f6ff00;
      }

      .cls-2 {
        fill-rule: evenodd;
      }
    </style>
  </defs>
  <ellipse class="cls-1" cx="17" cy="16.5" rx="16" ry="16.5"/>
  <path id="_" data-name="😒" class="cls-2" d="M27.9,4.9A16.744,16.744,0,0,0,16.807.943c-7.676,0-15.937,4.8-15.937,15.352S9.131,31.646,16.807,31.646A16.811,16.811,0,0,0,27.9,27.676,14.72,14.72,0,0,0,32.73,16.295,14.73,14.73,0,0,0,27.9,4.9ZM27.178,26.841a15.621,15.621,0,0,1-10.371,3.706A16.035,16.035,0,0,1,6.67,27.09a13.485,13.485,0,0,1-4.7-10.8A13.526,13.526,0,0,1,6.67,5.5,16.035,16.035,0,0,1,16.807,2.042,15.617,15.617,0,0,1,27.148,5.718a13.694,13.694,0,0,1,4.482,10.576A13.609,13.609,0,0,1,27.178,26.841Zm-10.3-5.3a6.974,6.974,0,0,0-5.552,2.7A1.158,1.158,0,0,0,11.2,25.3a0.691,0.691,0,0,0,.6.366,0.946,0.946,0,0,0,.278-0.058,13.558,13.558,0,0,1,4.8-1.128,13.479,13.479,0,0,1,4.8,1.128,0.946,0.946,0,0,0,.278.058,0.674,0.674,0,0,0,.6-0.366,0.986,0.986,0,0,0-.132-1.069A6.949,6.949,0,0,0,16.88,21.539Zm11.646-9.053A5.689,5.689,0,0,0,24.98,10.2a4.8,4.8,0,0,0-1.582-.088,0.5,0.5,0,0,0-.5.527,0.48,0.48,0,0,0,.513.5,7.119,7.119,0,0,1,4.321,1.978A0.506,0.506,0,0,0,28.525,12.486Zm-18.3-1.875A0.514,0.514,0,0,0,9.746,10.1a5.322,5.322,0,0,0-1.6.073A5.688,5.688,0,0,0,4.6,12.457a0.5,0.5,0,0,0,.791.6A6.888,6.888,0,0,1,9.717,11.08,0.458,0.458,0,0,0,10.23,10.611ZM12.983,17.2a1.922,1.922,0,0,0,.278-2.256,1.393,1.393,0,0,0-.718-0.6,8.872,8.872,0,0,0-5.054.19,0.58,0.58,0,0,0-.337.747,0.55,0.55,0,0,0,.688.322,6.906,6.906,0,0,1,1.978-.1v0.1a1.954,1.954,0,0,0,1.846,2.153A1.782,1.782,0,0,0,12.983,17.2Zm-1.26-1.919a0.78,0.78,0,0,1,1.04.352,0.834,0.834,0,0,1-.161.908,0.793,0.793,0,0,1-1.055-.352A0.759,0.759,0,0,1,11.724,15.284ZM25.7,14.346a8.881,8.881,0,0,0-5.054.19,0.567,0.567,0,0,0-.352.718,0.54,0.54,0,0,0,.7.352,6.906,6.906,0,0,1,1.978-.1v0.1a1.954,1.954,0,0,0,1.846,2.153,1.834,1.834,0,0,0,1.318-.586,1.884,1.884,0,0,0,.278-2.227A1.393,1.393,0,0,0,25.7,14.346Zm0.088,2.2a0.784,0.784,0,0,1-1.055-.381,0.813,0.813,0,0,1,.176-0.908,0.767,0.767,0,0,1,1.04.381A0.79,0.79,0,0,1,25.786,16.544Z"/>
</svg>
