<svg xmlns="http://www.w3.org/2000/svg" width="9" height="8" viewBox="0 0 9 8">
  <defs>
    <style>
      .cls-1 {
        fill: #fd0000;
        fill-rule: evenodd;
      }
    </style>
  </defs>
  <path id="_" data-name="â¤" class="cls-1" d="M6.753,0A2.556,2.556,0,0,0,4.5,1.629,0.321,0.321,0,0,1,4.486,1.59,2.26,2.26,0,0,0,2.255,0C1.015,0-.409.951,0.115,3.125S4.51,8,4.51,8,8.365,5.3,8.889,3.125,8.093,0,6.753,0ZM2.119,1.54a2.042,2.042,0,0,0-.744.7,2.112,2.112,0,0,0-.208.671,0.1,0.1,0,0,1-.188.035,1.613,1.613,0,0,1,0-1.787,0.89,0.89,0,0,1,1.208-.3A0.444,0.444,0,0,1,2.119,1.54Zm4.423-.124a1.724,1.724,0,0,1-1.048.453,0.179,0.179,0,0,1-.18-0.24,2.631,2.631,0,0,1,.344-0.62A0.68,0.68,0,0,1,6.5.733,0.439,0.439,0,0,1,6.541,1.416Z"/>
</svg>
