<svg id="Layer_1" data-name="Layer 1" xmlns="http://www.w3.org/2000/svg" viewBox="0 0 355.89 383.19">
    <defs>
        <style>
            .cls-1 {
            fill: #dd2527;
            stroke: #140a0b;
            stroke-miterlimit: 10;
            stroke-width: 6px;
            fill-rule: evenodd;
            }

            .cls-2 {
            fill: #231f20;
            }
        </style>
    </defs>
    <title>puzzle_logo</title>
    <path class="cls-1"
          d="M1110.82,228.76s-46,8.16-71.33,4.65c-11.75-1.63-17.13-19-6.25-27.19,10-7.51,12.12-47.65-40.15-43C952.19,166.8,959,197.42,969.42,203c10,5.36,9.55,22.06-11.25,26.83-28.48,6.51-114.83-9.57-114.83-9.57s9.52,39.5,5.43,61.18c-1.91,10.08-22.19,14.7-31.7,5.36-8.77-8.58-55.56-10.38-50.18,34.44,4.21,35.09,39.91,29.23,46.42,20.3,6.26-8.58,25.74-8.18,31.28,9.66,7.6,24.43,1.25,122.35,1.25,122.35s67.38-8.82,97.21-7.37c19.17.92,15.41,22.38.39,29.9-16.07,8-9.72,45.72,31.5,43.84,39.28-1.81,52.34-37.41,32.32-50.28-13-8.35-7.37-21.08,4.64-22.4,20.88-2.3,94.2.93,94.2.93s11.41-60.06,7.6-79.51c-4.08-20.85-31.92-8.28-35.41-4.3-22.51,25.76-69.24,11.68-69.24-31.54,0-63,66.69-52.27,73-37.15,6.92,16.66,29.87,12.39,32.38,2.15C1120.3,293.93,1110.82,228.76,1110.82,228.76Z"
          transform="translate(-763.46 -159.81)"/>
    <g>
        <path class="cls-2"
              d="M880.72,246.42h4.78V280.5h-4.78Zm2.46,16.31h10.9a5.09,5.09,0,0,0,2.72-.72,4.85,4.85,0,0,0,1.81-2.06,7.65,7.65,0,0,0,0-6.17,4.88,4.88,0,0,0-1.81-2.07,4.93,4.93,0,0,0-2.72-.74h-10.9v-4.55h10.73a10.86,10.86,0,0,1,5.37,1.3,9,9,0,0,1,3.6,3.67,12.37,12.37,0,0,1,0,11,9,9,0,0,1-3.6,3.64,10.86,10.86,0,0,1-5.37,1.29H883.18Z"
              transform="translate(-763.46 -159.81)"/>
        <path class="cls-2"
              d="M913.74,271a5.61,5.61,0,0,0,1.3,4,4.77,4.77,0,0,0,3.67,1.39,5,5,0,0,0,3.63-1.24,4.69,4.69,0,0,0,1.29-3.54l.33,5.09a7,7,0,0,1-2.44,3,6.81,6.81,0,0,1-4.14,1.22,7.7,7.7,0,0,1-6.23-2.59c-1.46-1.72-2.19-4.16-2.19-7.3V256.17h4.78Zm9.89-14.79h4.76V280.5h-4.76Z"
              transform="translate(-763.46 -159.81)"/>
        <path class="cls-2" d="M952.44,260.2l-11.7,15.87h12.33v4.43H935v-4.12l12-15.78H935.28v-4.43h17.16Z"
              transform="translate(-763.46 -159.81)"/>
        <path class="cls-2" d="M976.18,260.2l-11.7,15.87h12.33v4.43H958.7v-4.12l12-15.78H959v-4.43h17.16Z"
              transform="translate(-763.46 -159.81)"/>
        <path class="cls-2"
              d="M987.92,274.22a2.13,2.13,0,0,0,.39,1.37,1.32,1.32,0,0,0,1.09.48h2.25v4.55h-2.81a5.32,5.32,0,0,1-4.21-1.69,7,7,0,0,1-1.49-4.76V246.42h4.78Z"
              transform="translate(-763.46 -159.81)"/>
        <path class="cls-2"
              d="M1003.63,280.85l-2.4-1.26a8.55,8.55,0,0,1-3.64-3.72,12.79,12.79,0,0,1-1.25-5.92v-2.74a14.37,14.37,0,0,1,1.2-6.16,8.64,8.64,0,0,1,3.51-3.89,10.81,10.81,0,0,1,5.53-1.34,8.82,8.82,0,0,1,5.2,1.52,9.44,9.44,0,0,1,3.29,4.41,18.8,18.8,0,0,1,1.14,6.91v1.6H999.8v-3.85h11.86a8.18,8.18,0,0,0-1.53-4.62,4.3,4.3,0,0,0-3.55-1.66,5.21,5.21,0,0,0-4.21,1.78,7.67,7.67,0,0,0-1.49,5v3.1a6.32,6.32,0,0,0,1.6,4.64,6,6,0,0,0,4.52,1.61,7.52,7.52,0,0,0,2.88-.58,8.3,8.3,0,0,0,2.56-1.64l3.14,3.14a13.1,13.1,0,0,1-4.06,2.68,11.39,11.39,0,0,1-4.52,1Z"
              transform="translate(-763.46 -159.81)"/>
        <path class="cls-2"
              d="M1025.93,279.76a7.33,7.33,0,0,1-2.88-3.38,13.31,13.31,0,0,1-1-5.35v-5.37a13.48,13.48,0,0,1,1-5.36,7.28,7.28,0,0,1,2.8-3.39,8.16,8.16,0,0,1,4.42-1.16,7.3,7.3,0,0,1,4,1.13,8.27,8.27,0,0,1,2.89,3.16l-.49,5a5.83,5.83,0,0,0-.56-2.65,4,4,0,0,0-1.63-1.68,5.42,5.42,0,0,0-2.59-.57,4.62,4.62,0,0,0-3.67,1.48,6.08,6.08,0,0,0-1.3,4.14V271a5.92,5.92,0,0,0,1.3,4.09,4.7,4.7,0,0,0,3.67,1.44,5.19,5.19,0,0,0,2.59-.6,3.93,3.93,0,0,0,1.63-1.72,6,6,0,0,0,.56-2.69l.33,5.13a6.9,6.9,0,0,1-2.38,3,6.62,6.62,0,0,1-4.07,1.22A8.43,8.43,0,0,1,1025.93,279.76Zm10.67-33.34h4.78V280.5h-4.78Z"
              transform="translate(-763.46 -159.81)"/>
    </g>
    <g>
        <path class="cls-2"
              d="M920.72,327.33h4.76v34.08h-4.76ZM923.53,357h9.24c2.42,0,4.18-.47,5.29-1.39a4.78,4.78,0,0,0,1.67-3.89v-.07a6.75,6.75,0,0,0-.6-3,4.11,4.11,0,0,0-1.89-1.91,7.1,7.1,0,0,0-3.3-.67H923.53v-4.32h10.41a5.68,5.68,0,0,0,4-1.24,5.65,5.65,0,0,0-.15-7.5,6.86,6.86,0,0,0-4.5-1.26h-9.75v-4.43h10.62a12.19,12.19,0,0,1,5.53,1.12,7.51,7.51,0,0,1,3.33,3.19,10.36,10.36,0,0,1,1.1,4.92,8.07,8.07,0,0,1-.68,3.29,6.74,6.74,0,0,1-2.07,2.63,7.77,7.77,0,0,1-3.46,1.46,7.52,7.52,0,0,1,5.86,4.36,8.91,8.91,0,0,1,.79,3.75v.07a9.6,9.6,0,0,1-1.21,4.88,8.24,8.24,0,0,1-3.5,3.26,11.64,11.64,0,0,1-5.29,1.15h-11Z"
              transform="translate(-763.46 -159.81)"/>
        <path class="cls-2"
              d="M948.66,337.08h4.87L961,358.22l-2.65,5.18Zm21.54,0-10.36,30a7.22,7.22,0,0,1-1.48,2.64,5.13,5.13,0,0,1-2.25,1.39,11,11,0,0,1-3.28.42h-1V367h1a3.68,3.68,0,0,0,2.12-.54,4.36,4.36,0,0,0,1.37-1.85l9-27.49Z"
              transform="translate(-763.46 -159.81)"/>
    </g>
    <g>
        <path class="cls-2"
              d="M880.72,403.33h4.78v34.08h-4.78ZM884,432.86h7.71a8.16,8.16,0,0,0,5.85-2,7.22,7.22,0,0,0,2.08-5.52v-10a7.25,7.25,0,0,0-2.08-5.52,8.21,8.21,0,0,0-5.85-2H884v-4.54h7.57a15.65,15.65,0,0,1,7,1.43,9.89,9.89,0,0,1,4.43,4.17,13.37,13.37,0,0,1,1.52,6.61v9.65A13.35,13.35,0,0,1,903,431.8a10,10,0,0,1-4.44,4.18,15.89,15.89,0,0,1-7,1.43H884Z"
              transform="translate(-763.46 -159.81)"/>
        <path class="cls-2"
              d="M918.34,437.76,916,436.49a8.44,8.44,0,0,1-3.65-3.71,12.84,12.84,0,0,1-1.25-5.92v-2.74a14.45,14.45,0,0,1,1.2-6.17,8.69,8.69,0,0,1,3.51-3.89,10.81,10.81,0,0,1,5.53-1.33,8.75,8.75,0,0,1,5.2,1.52,9.42,9.42,0,0,1,3.3,4.41,19,19,0,0,1,1.13,6.91v1.59h-16.4v-3.84h11.86a8.26,8.26,0,0,0-1.54-4.63,4.32,4.32,0,0,0-3.55-1.65,5.18,5.18,0,0,0-4.21,1.78,7.67,7.67,0,0,0-1.49,5V427a6.34,6.34,0,0,0,1.6,4.64,6.05,6.05,0,0,0,4.52,1.62,7.53,7.53,0,0,0,2.88-.59,8.12,8.12,0,0,0,2.56-1.64l3.14,3.14a13.31,13.31,0,0,1-4.06,2.69,11.57,11.57,0,0,1-4.52.95Z"
              transform="translate(-763.46 -159.81)"/>
        <path class="cls-2"
              d="M943.93,437.76l-1.89-.43a14.73,14.73,0,0,1-3.52-1.26,13.72,13.72,0,0,1-3-2.11l2.84-3.49a16.07,16.07,0,0,0,3.91,2.25,10.66,10.66,0,0,0,3.85.75,8.27,8.27,0,0,0,4.25-.88,2.9,2.9,0,0,0,1.42-2.64,2.06,2.06,0,0,0-.78-1.76,4.28,4.28,0,0,0-1.92-.78c-.76-.13-1.84-.25-3.23-.36l-.4,0c-.14,0-.27,0-.4,0h-.37a18.9,18.9,0,0,1-4-.7,5.35,5.35,0,0,1-2.73-1.88,6.25,6.25,0,0,1-1.09-4,8.07,8.07,0,0,1,1-4.29,6.45,6.45,0,0,1,3.14-2.57,13.89,13.89,0,0,1,5.23-.85,17.65,17.65,0,0,1,3.62.35,15.77,15.77,0,0,1,3.29,1,16,16,0,0,1,3,1.75l-2.89,3.49a15.85,15.85,0,0,0-3.59-1.76,11,11,0,0,0-3.46-.59,6.52,6.52,0,0,0-3.66.84,2.8,2.8,0,0,0-1.21,2.49,1.7,1.7,0,0,0,.69,1.48,4,4,0,0,0,1.74.66c.71.1,1.71.2,3,.28l.3,0,.31,0h.14a.32.32,0,0,1,.14,0,20.28,20.28,0,0,1,4.35.68,5.78,5.78,0,0,1,3,2,6.84,6.84,0,0,1,1.22,4.4,7.81,7.81,0,0,1-1.12,4.35,6.79,6.79,0,0,1-3.39,2.59,16,16,0,0,1-5.68.87Z"
              transform="translate(-763.46 -159.81)"/>
        <path class="cls-2" d="M962.38,403.33h4.78v4.78h-4.78Zm0,9.75h4.78v24.33h-4.78Z"
              transform="translate(-763.46 -159.81)"/>
        <path class="cls-2"
              d="M977.57,436.67a7.45,7.45,0,0,1-2.87-3.39,13.26,13.26,0,0,1-1-5.34v-5.37a13.57,13.57,0,0,1,1-5.37,7.24,7.24,0,0,1,2.8-3.38,8.07,8.07,0,0,1,4.42-1.16,7.29,7.29,0,0,1,4,1.12,8.27,8.27,0,0,1,2.89,3.16l-.49,5a5.86,5.86,0,0,0-.56-2.65,3.87,3.87,0,0,0-1.63-1.67,5.44,5.44,0,0,0-2.59-.58,4.65,4.65,0,0,0-3.67,1.48,6.07,6.07,0,0,0-1.3,4.15v5.3a5.89,5.89,0,0,0,1.3,4.09,4.7,4.7,0,0,0,3.67,1.44,5.22,5.22,0,0,0,2.59-.6,4,4,0,0,0,1.63-1.72,6,6,0,0,0,.56-2.7l.33,5.13a6.94,6.94,0,0,1-2.38,3,6.68,6.68,0,0,1-4.07,1.22A8.58,8.58,0,0,1,977.57,436.67Zm2.27,10.63-2.17-1a7.93,7.93,0,0,1-3.37-2.87l3.24-2.93a6.73,6.73,0,0,0,2.24,2,5.6,5.6,0,0,0,2.73.7,5.69,5.69,0,0,0,4.24-1.51,5.81,5.81,0,0,0,1.5-4.28v-24.3H993v23.6a12.41,12.41,0,0,1-1.23,5.74,8.29,8.29,0,0,1-3.57,3.63,11.93,11.93,0,0,1-5.65,1.25Z"
              transform="translate(-763.46 -159.81)"/>
        <path class="cls-2"
              d="M1000.3,413.08h4.78v24.33h-4.78Zm14.76,9.58a5.55,5.55,0,0,0-1.33-4,4.92,4.92,0,0,0-3.75-1.41,5,5,0,0,0-3.62,1.24,4.64,4.64,0,0,0-1.28,3.5l-.49-4.69a8.7,8.7,0,0,1,2.94-3.4,7.12,7.12,0,0,1,4-1.19,7.55,7.55,0,0,1,6.13,2.59q2.16,2.58,2.16,7.32v14.77h-4.78Z"
              transform="translate(-763.46 -159.81)"/>
    </g>
</svg>
