<svg xmlns="http://www.w3.org/2000/svg" viewBox="0 0 315.13 286.51">
    <defs>
        <style>
            .cls-1 {
            fill: #26306c;
            }

            .cls-2 {
            fill: #fefeff;
            }

            .cls-3 {
            fill: #f7f7f9;
            }

            .cls-4 {
            fill: #f9f9fa;
            }

            .cls-5 {
            fill: #272f6f;
            }
        </style>
    </defs>
    <g id="Phone_body">
        <path class="cls-1"
              d="M277.85,304.94H240.54v35.32L197.06,419q-16.86,30.21-16.86,58.36v44.19H425.08V477.38q0-18.13-3-29.18t-12.78-28.43l-44.37-79.51V304.94H327.6v25.5H277.85Z"
              transform="translate(-145.08 -235.06)"/>
        <rect class="cls-2" x="110.93" y="125.78" width="20.67" height="16.24"/>
        <rect class="cls-3" x="146.22" y="125.78" width="20.67" height="16.24"/>
        <rect class="cls-3" x="181.52" y="125.78" width="20.67" height="16.24"/>
        <rect class="cls-3" x="110.93" y="153.74" width="20.67" height="16.24"/>
        <rect class="cls-3" x="146.22" y="153.74" width="20.67" height="16.24"/>
        <rect class="cls-3" x="181.52" y="153.74" width="20.67" height="16.24"/>
        <rect class="cls-4" x="110.93" y="181.69" width="20.67" height="16.24"/>
        <rect class="cls-4" x="146.22" y="181.69" width="20.67" height="16.24"/>
        <rect class="cls-4" x="181.52" y="181.69" width="20.67" height="16.24"/>
    </g>
    <g id="Phone_handle">
        <path class="cls-5"
              d="M375.31,241.67a395.55,395.55,0,0,0-73.47-6.61,381.34,381.34,0,0,0-71.7,6.61,333.12,333.12,0,0,0-66.5,20,193.86,193.86,0,0,0-18.56,58.17,75.88,75.88,0,0,0,29.74,6.23q25.22,0,51.1-17.18v-4q0-27.94,78-27.95,75.47,0,75.47,27.95v4q27.06,14.54,51.6,14.54a123.31,123.31,0,0,0,29.24-3.59q-4.87-32.48-18.49-58.17A320.47,320.47,0,0,0,375.31,241.67Z"
              transform="translate(-145.08 -235.06)"/>
        <path class="cls-5"
              d="M430.8,332.89a98,98,0,0,1-51.43-14.35V327q0,20.77,12.18,30.78t37.4,10q18,0,24.62-6.51t6.64-24.08v-9.07a89.12,89.12,0,0,1-29.41,4.72Z"
              transform="translate(-145.08 -235.06)"/>
        <path class="cls-5"
              d="M175.83,335.16q-13.79,0-30.75-6.23v8.12q0,19.26,6.64,26.16t25.12,6.89q25.72,0,37.4-10.29t11.68-33v-7q-24.21,15.3-50.09,15.3Z"
              transform="translate(-145.08 -235.06)"/>
    </g>
</svg>
