<svg xmlns="http://www.w3.org/2000/svg" xmlns:xlink="http://www.w3.org/1999/xlink" version="1.1" x="0px" y="0px"
     viewBox="0 0 100 100" enable-background="new 0 0 100 100" xml:space="preserve"><path d="M50.3,42c10.1,0,18.1-8.3,18.1-18.5c0-10.3-8-18.7-18.1-18.7c-10.3,0-18.6,8.3-18.6,18.7C31.7,33.7,40,42,50.3,42L50.3,42z   M38.9,47.6c-13,0-22.3,10.7-22.3,22.1c0,10.9,0,11.1,0,11.1c0.1,12.3,12.9,14.3,33.6,14.3c20.3,0,33-2,33-14.3c0,0,0-1.6,0-11.1  c0-11.6-9.1-22.1-22.1-22.1H38.9z"></path></svg>
